<?xml version="1.0" encoding="utf-8"?>
<!-- Generator: Adobe Illustrator 16.0.0, SVG Export Plug-In . SVG Version: 6.00 Build 0)  -->
<!DOCTYPE svg PUBLIC "-//W3C//DTD SVG 1.1//EN" "http://www.w3.org/Graphics/SVG/1.1/DTD/svg11.dtd">
<svg version="1.1" id="Layer_1" xmlns="http://www.w3.org/2000/svg" xmlns:xlink="http://www.w3.org/1999/xlink" x="0px" y="0px"
	 width="1024px" height="1024px" viewBox="0 0 1024 1024" enable-background="new 0 0 1024 1024" xml:space="preserve">
<g>
	<g>
		<path fill-rule="evenodd" clip-rule="evenodd" fill="none" d="M1024,1024c-341.333,0-682.667,0-1024,0C0,682.667,0,341.333,0,0
			c341.333,0,682.666,0,1024,0C1024,341.333,1024,682.667,1024,1024z M68.688,283.791c0.761-0.055,1.522-0.11,2.283-0.165
			c0.959,5.262,1.574,10.614,2.932,15.772c10.581,40.198,31.757,74.996,56.862,107.354c26.771,34.506,58.163,64.749,91.388,93.05
			c36.471,31.065,73.331,61.684,109.407,93.202c31.013,27.093,61.687,54.622,91.552,82.967
			c35.766,33.943,68.467,70.629,93.361,113.626c18.251,31.521,32.53,64.497,36.544,101.102c1.367,12.467,1.722,25.045,2.54,37.572
			c0.731,0.17,1.462,0.34,2.193,0.512c4.468-13.79,9.081-27.535,13.374-41.38c8.445-27.241,7.192-55.358,5.996-83.213
			c-0.735-17.115-2.97-34.52-7.313-51.065c-18.306-69.717-55.98-128.977-102.543-182.888
			c-46.787-54.168-101.798-99.601-156.979-144.736c-38.141-31.195-75.716-62.982-107.45-100.924
			c-40.186-48.049-67.151-102.28-72.741-165.364c-3.039-34.293-3.237-68.792,4.917-102.71c2.511-10.449,5.082-20.884,8.004-32.881
			c-3.397,3.23-5.6,5.369-7.85,7.456c-23.045,21.375-39.817,47.772-56.495,73.835c-20.295,31.717-36.282,65.87-49.144,101.438
			C3.729,277.687-3.032,351.137,4.967,426.108c4.245,39.784,13.71,78.657,27.075,116.292
			c32.781,92.314,84.16,173.648,150.135,245.624c65.396,71.344,141.265,129.008,229.542,169.587
			c16.96,7.795,34.21,14.961,53.665,23.435c3.807-22.022,8.474-42.328,10.584-62.896c2.764-26.927-3.372-53.03-13.03-78.017
			c-15.188-39.29-41.351-71.392-69.73-101.687c-39.796-42.482-85.288-78.625-129.9-115.775
			c-35.197-29.312-70.517-58.623-103.842-89.996c-38.518-36.264-64.083-81.175-79.224-132.018
			c-6.97-23.403-10.382-47.292-11.432-71.533C68.157,314.04,68.688,298.904,68.688,283.791z M603.583,993.387
			c2.233,0.175,3.721,0.374,5.21,0.396c62.889,0.889,125.09-4.351,185.456-23.087c45.295-14.058,87.046-34.793,121.553-68.389
			c61.438-59.814,79.48-132.853,64.391-215.142c-9.14-49.845-36.604-89.244-76.028-120.466
			c-31.896-25.26-68.155-42.763-106.336-55.652c-34.13-11.521-68.973-21.13-103.887-30.072
			c-74.466-19.072-149.179-37.179-223.802-55.64c-7.737-1.915-15.543-3.549-23.316-5.313c1.593,3.932,3.913,6.239,6.345,8.422
			c31.433,28.208,61.433,57.82,88.635,90.186c22.511,26.784,42.535,55.351,59.947,85.655c3.778,6.573,7.45,10.568,15.209,12.25
			c50.693,10.991,101.254,22.519,149.653,41.825c19.941,7.955,37.403,19.374,49.781,36.939
			c11.614,16.48,14.511,35.752,12.891,55.546c-2.391,29.202-16.345,52.48-40.536,68.082c-12.985,8.375-28.304,14.017-43.324,18.153
			c-26.315,7.246-53.62,8.158-80.854,8.033c-13.62-0.063-14.099,0.353-15.71,13.808c-3.524,29.419-11.853,57.55-23.365,84.755
			C618.578,960.024,611.19,976.175,603.583,993.387z M374.22,357.143c4.132-10.995,7.531-21.008,11.613-30.734
			c16.079-38.317,43.047-66.223,80.578-84.137c45.136-21.546,93.63-27.086,142.551-28.688c46.658-1.529,92.991,3.156,138.433,14.712
			c49.235,12.521,96.631,29.695,140.693,55.358c3.669,2.138,7.372,4.216,10.716,6.125c0.991-0.844,1.306-0.975,1.358-1.176
			c11.675-43.589,23.322-87.186,35.005-130.772c1.347-5.027-0.379-7.796-5.055-10.428C864.617,110.543,794.031,90.325,719.63,82.37
			c-47.993-5.131-96.027-6.788-144.255-3.26c-41.588,3.042-82.645,8.701-122.815,20.204
			c-50.011,14.322-96.749,35.189-137.864,67.634c-24.337,19.205-45.49,41.318-63.088,66.9c-3.027,4.401-2.753,6.654,0.983,10.239
			c20.733,19.895,40.86,40.433,61.869,60.028C333.713,322.073,353.824,339.113,374.22,357.143z"/>
		<path fill-rule="evenodd" clip-rule="evenodd" fill="#84BD41" d="M68.688,283.791c0,15.113-0.532,30.249,0.122,45.333
			c1.049,24.241,4.462,48.13,11.432,71.533c15.141,50.843,40.706,95.754,79.224,132.018c33.325,31.373,68.645,60.684,103.842,89.996
			c44.612,37.15,90.104,73.293,129.9,115.775c28.38,30.295,54.542,62.396,69.73,101.687c9.659,24.986,15.794,51.09,13.03,78.017
			c-2.111,20.568-6.777,40.874-10.584,62.896c-19.455-8.474-36.705-15.64-53.665-23.435
			c-88.276-40.579-164.146-98.243-229.542-169.587C116.202,716.048,64.823,634.714,32.042,542.4
			c-13.364-37.635-22.83-76.508-27.075-116.292c-7.999-74.971-1.238-148.421,24.559-219.758
			c12.862-35.568,28.848-69.722,49.144-101.438c16.678-26.063,33.449-52.46,56.495-73.835c2.25-2.087,4.452-4.226,7.85-7.456
			c-2.922,11.998-5.493,22.433-8.004,32.881c-8.154,33.919-7.956,68.417-4.917,102.71c5.59,63.084,32.556,117.315,72.741,165.364
			c31.734,37.942,69.309,69.729,107.45,100.924c55.182,45.135,110.193,90.568,156.979,144.736
			c46.563,53.912,84.238,113.171,102.543,182.888c4.343,16.546,6.578,33.95,7.313,51.065c1.196,27.854,2.45,55.972-5.996,83.213
			c-4.293,13.845-8.906,27.59-13.374,41.38c-0.731-0.172-1.462-0.342-2.193-0.512c-0.817-12.527-1.173-25.105-2.54-37.572
			c-4.014-36.604-18.293-69.58-36.544-101.102c-24.894-42.997-57.595-79.683-93.361-113.626
			c-29.866-28.345-60.54-55.874-91.552-82.967c-36.076-31.518-72.936-62.137-109.407-93.202
			c-33.226-28.301-64.617-58.544-91.388-93.05c-25.105-32.358-46.281-67.156-56.862-107.354c-1.358-5.158-1.973-10.51-2.932-15.772
			C70.21,283.681,69.449,283.736,68.688,283.791z"/>
		<path fill-rule="evenodd" clip-rule="evenodd" fill="#2C4639" d="M603.583,993.387c7.606-17.212,14.994-33.363,21.914-49.711
			c11.512-27.205,19.84-55.336,23.365-84.755c1.611-13.455,2.09-13.87,15.71-13.808c27.233,0.125,54.538-0.787,80.854-8.033
			c15.021-4.137,30.339-9.778,43.324-18.153c24.191-15.602,38.146-38.88,40.536-68.082c1.62-19.794-1.276-39.065-12.891-55.546
			c-12.378-17.565-29.84-28.984-49.781-36.939c-48.399-19.307-98.96-30.834-149.653-41.825c-7.76-1.682-11.432-5.677-15.209-12.25
			c-17.412-30.304-37.436-58.871-59.947-85.655c-27.202-32.366-57.202-61.978-88.635-90.186c-2.433-2.183-4.752-4.49-6.345-8.422
			c7.773,1.765,15.579,3.399,23.316,5.313c74.623,18.461,149.335,36.568,223.802,55.64c34.914,8.942,69.757,18.552,103.887,30.072
			c38.181,12.889,74.439,30.392,106.336,55.652c39.424,31.222,66.889,70.621,76.028,120.466
			c15.09,82.289-2.952,155.327-64.391,215.142c-34.507,33.596-76.258,54.331-121.553,68.389
			c-60.366,18.736-122.567,23.976-185.456,23.087C607.304,993.761,605.816,993.562,603.583,993.387z"/>
		<path fill-rule="evenodd" clip-rule="evenodd" fill="#2C4639" d="M374.22,357.143c-20.396-18.03-40.507-35.07-59.76-53.027
			c-21.008-19.595-41.135-40.133-61.869-60.028c-3.736-3.585-4.011-5.837-0.983-10.239c17.599-25.582,38.751-47.696,63.088-66.9
			c41.115-32.444,87.853-53.312,137.864-67.634c40.171-11.503,81.227-17.163,122.815-20.204c48.228-3.528,96.262-1.872,144.255,3.26
			c74.4,7.955,144.986,28.173,210.482,65.032c4.676,2.632,6.401,5.401,5.055,10.428c-11.683,43.586-23.33,87.183-35.005,130.772
			c-0.053,0.201-0.367,0.332-1.358,1.176c-3.344-1.91-7.047-3.988-10.716-6.125c-44.063-25.663-91.458-42.836-140.693-55.358
			c-45.442-11.556-91.775-16.241-138.433-14.712c-48.921,1.603-97.415,7.143-142.551,28.688
			c-37.531,17.915-64.499,45.82-80.578,84.137C381.751,336.135,378.352,346.148,374.22,357.143z"/>
	</g>
</g>
<g>
</g>
<g>
</g>
<g>
</g>
<g>
</g>
<g>
</g>
<g>
</g>
</svg>
